<svg width="270" height="205" viewBox="0 0 270 205" fill="none" xmlns="http://www.w3.org/2000/svg">
<path d="M235.775 44.835C217.74 45.0352 202.922 56.2067 202.553 69.9008C202.289 79.6309 209.145 88.1596 219.428 92.6443V137.731C219.428 160.674 192.955 179.374 160.365 179.374C128.725 179.374 102.779 161.715 101.355 139.653C139.746 133.646 168.75 107.78 168.75 76.868V14.6439C168.75 10.0792 164.479 6.11512 158.572 5.23422L125.402 0.189018C118.547 -0.852054 111.902 2.51141 110.531 7.71677L108.844 14.0032C107.473 19.2086 111.902 24.2538 118.758 25.2949L134.947 27.7374V76.3475C134.947 97.5293 112.693 115.067 84.7969 115.268C56.6367 115.468 33.6973 98.1699 33.6973 76.828V27.7774L49.8867 25.3349C56.7422 24.2938 61.1719 19.2487 59.8008 14.0433L58.166 7.75681C56.7949 2.55145 50.1504 -0.812013 43.2949 0.229059L10.1777 5.19417C4.27148 6.11512 0 10.0392 0 14.6439V76.868C0 107.82 29.0566 133.727 67.5527 139.653C68.9238 175.85 110.004 205 160.312 205C211.465 205 253.125 174.809 253.125 137.731V92.6443C263.197 88.1997 270 79.9512 270 70.4614C270 56.1667 254.602 44.6348 235.775 44.835ZM236.25 76.868C231.609 76.868 227.812 73.985 227.812 70.4614C227.812 66.9378 231.609 64.0548 236.25 64.0548C240.891 64.0548 244.687 66.9378 244.687 70.4614C244.687 73.985 240.891 76.868 236.25 76.868Z" fill="#107EFF"/>
</svg>
